<svg class="bottom" xmlns="http://www.w3.org/2000/svg" viewBox="0 0 1024 130.34" xml:space="preserve" preserveAspectRatio="xMinYMin meet" width="100%" height="100%">

      <path class="cls-1" d="M213.23 13.91c21.62-5.75 21.13 24.2 20.75 37.28-.44 15.21-.56 31.45 9.08 44.16 2.3 3 7.52.05 5.18-3-12.76-16.83-6.73-38.53-8.41-57.93-1.31-15.15-10.67-30.92-28.2-26.26-3.73 1-2.15 6.78 1.6 5.79z"/>
      <path class="cls-1" d="M238.4 42c19.95 2.23 29.15-23.67 24.45-39.58C261.77-1.3 256 .28 257.07 4c3.66 12.42-2.76 33.77-18.67 32-3.83-.43-3.8 5.58 0 6zM233.28 21c5.93-4.38 13.06-12.19 7.41-19.77-2.28-3.06-7.49-.07-5.18 3 3.43 4.6-1.82 9-5.25 11.56-3.07 2.27-.08 7.48 3 5.18zM211.08 41.91c-1.64 5.56.72 11.13 5.15 14.69 5.31 4.27 12.48 4.53 19 4.63 3.86.06 3.86-5.94 0-6-6.62-.1-21.4-1.39-18.35-11.73 1.09-3.71-4.7-5.3-5.79-1.6zM237.56 75.47c11.76 2.18 22.53-6.62 21.83-18.8-.22-3.84-6.22-3.86-6 0 .47 8-6.09 14.52-14.23 13-3.77-.7-5.39 5.08-1.6 5.79z"/>
      <path class="cls-1" d="M260.34 22a21.51 21.51 0 0 0 18.29-11.93c1.68-3.46-3.49-6.5-5.18-3a15.5 15.5 0 0 1-13.11 9c-3.84.22-3.86 6.22 0 6zM196.19 46.09c1.39 8.12 10.62 8.22 16.93 7.16 3.8-.64 2.19-6.43-1.6-5.79-3.21.54-8.79 1.43-9.55-3-.65-3.8-6.43-2.19-5.79 1.6zM254.36 67.23c5.11 2.16 10.82 0 14-4.3 2.29-3.11-2.91-6.11-5.18-3-1.69 2.3-4.76 2.58-7.22 1.54-1.5-.63-3.28.68-3.69 2.1-.5 1.73.61 3.06 2.1 3.69z"/>
      <path class="cls-2" d="M225.63 100.42c5.94-3.09 9.35-9.52 13.77-14.32a35.51 35.51 0 0 0-9.46.3c-2.93 3.41-6.13 6.61-10.39 8.31a30 30 0 0 1-12.61 1.63l-.81.54a28.11 28.11 0 0 0-7.81 8.55 17.15 17.15 0 0 1 3.84-2.25c7.56-3.18 16.12 1.06 23.47-2.76z"/>
      <path class="cls-2" d="M238.42 113.42c2.55-1.18 5.58-1.68 7.78-3.55 2-1.69 3.16-4.16 4.42-6.39 1.72-3 3.29-5.75 7-6.27a61.58 61.58 0 0 1 10.92-.26 19.84 19.84 0 0 0-7-4.76 21 21 0 0 1-7.46 1.89c-6.4.66-9.94 5.76-13.8 10.29-3 3.56-6.28 7-10.82 8.52-6.68 2.26-14 .21-20.48 3.44-1.72.86-3.24-1.73-1.51-2.59 5.43-2.72 11.08-2.14 16.94-2.87 6.63-.82 10.47-4.73 14.56-9.59 3-3.57 6.07-7.48 10.55-9.23a21 21 0 0 1 6.09-1h.11c-.38-.06-.76-.13-1.13-.23a30.38 30.38 0 0 1-4.59-1.9 36.64 36.64 0 0 0-6.79-2.21 43.47 43.47 0 0 0-4.46 4.79c-3.15 3.89-6.15 8.14-10.46 10.85-5.49 3.45-11.24 2.45-17.4 2.44-6.94 0-12.73 3-15.32 9.07 0 .1 0 .2.06.29a48.71 48.71 0 0 0 5.56 2.33 94.17 94.17 0 0 0 26.35 4.69c1.69.06 3.41.07 5.16 0-.11-3.69 2.38-6.17 5.72-7.75zM224.76 87.6a60.93 60.93 0 0 0-12.94 5.73 23.37 23.37 0 0 0 5.43-1 19.18 19.18 0 0 0 7.51-4.73zM264.88 114a30.7 30.7 0 0 1-3 4.1c10-1.85 17.17-4 17.25-4.66.37-3.09-2.66-6.91-5.16-9.94-4.18 1.57-6.79 6.77-9.09 10.5z"/>
      <path class="cls-2" d="M272 101.06l-.08-.11-.59-.77h-8.48c-3.69 0-6.52.28-9 3.62-.81 1.1-1.33 2.46-2 3.63a17 17 0 0 1-4.9 5.64c-3.62 2.39-11.22 2.51-11.28 8.1a177.86 177.86 0 0 0 20.55-2.07c6.4-4.05 9.14-14.69 15.78-18.04z"/>
      <path class="cls-1" d="M210.86 104.8c6.16 0 11.91 1 17.4-2.44 4.31-2.71 7.31-7 10.46-10.85a43.47 43.47 0 0 1 4.46-4.79 34.27 34.27 0 0 0-3.79-.61c-4.42 4.8-7.83 11.24-13.77 14.32-7.36 3.82-15.91-.43-23.48 2.76a17.15 17.15 0 0 0-3.84 2.25q-.43.68-.85 1.38c-1.29 2.15-2.48 4.65-1.92 7.06 2.59-6.07 8.39-9.09 15.33-9.08zM249.54 92.05c-4.49 1.75-7.55 5.66-10.55 9.23-4.09 4.86-7.93 8.77-14.56 9.59-5.86.73-11.51.14-16.94 2.87-1.73.87-.21 3.45 1.51 2.59 6.44-3.23 13.8-1.18 20.48-3.44 4.54-1.53 7.79-5 10.82-8.52 3.86-4.53 7.4-9.63 13.8-10.29a21 21 0 0 0 7.46-1.89 15 15 0 0 0-2.53-.73c-1.09-.21-2.2-.29-3.29-.47h-.11a21 21 0 0 0-6.09 1.06zM247 113.06a17 17 0 0 0 4.9-5.64c.71-1.17 1.23-2.52 2-3.63 2.45-3.34 5.28-3.63 9-3.62h8.48a36.18 36.18 0 0 0-2.81-3.23 61.58 61.58 0 0 0-10.92.26c-3.7.52-5.27 3.25-7 6.27-1.26 2.23-2.44 4.7-4.42 6.39-2.19 1.88-5.23 2.37-7.78 3.55-3.35 1.54-5.83 4.06-5.77 7.81q1.5 0 3-.07c.05-5.58 7.65-5.7 11.32-8.09zM256.23 119.09c2-.31 3.87-.63 5.69-1a30.7 30.7 0 0 0 3-4.1c2.3-3.74 4.91-8.94 9.13-10.49-.74-.9-1.44-1.73-2-2.46-6.69 3.37-9.43 14.01-15.82 18.05zM219.55 94.71c4.27-1.7 7.47-4.89 10.39-8.31a42.12 42.12 0 0 0-5.18 1.2 19.18 19.18 0 0 1-7.51 4.76 23.37 23.37 0 0 1-5.43 1c-1.65.95-3.28 2-4.88 3a30 30 0 0 0 12.61-1.65z"/>
      <path class="cls-3" d="M274 103.52c-.74-.9-4.47-5.56-5.47-6.57a19.84 19.84 0 0 0-7-4.76 15 15 0 0 0-2.53-.73c-1.09-.21-2.2-.29-3.29-.47-.38-.06-.76-.13-1.13-.23a30.38 30.38 0 0 1-4.58-1.84 36.64 36.64 0 0 0-6.79-2.21 34.27 34.27 0 0 0-3.79-.61 35.51 35.51 0 0 0-9.46.3 42.12 42.12 0 0 0-5.18 1.2 60.93 60.93 0 0 0-12.94 5.73c-1.65.95-3.28 2-4.88 3l-.81.54a28.11 28.11 0 0 0-7.81 8.55q-.43.68-.85 1.38c-1.29 2.15-2.48 4.65-1.92 7.06 0 .1 0 .2.06.29a48.71 48.71 0 0 0 5.56 2.33 94.17 94.17 0 0 0 26.35 4.69c1.69.06 3.41.07 5.16 0q1.5 0 3-.07a177.86 177.86 0 0 0 20.55-2.07c2-.31 3.87-.63 5.69-1 10-1.85 17.17-4 17.25-4.66.34-3-2.69-6.82-5.19-9.85z"/>
      <path class="cls-1" d="M617.68 26v15.62c0 3.69-.44 7.79.42 11.43 1.66 7.06 9.07 10.68 14.16 15 6.68 5.69 11.9 12.24 14.06 20.92 2.08 8.35 1.6 17.13 1.2 25.65-.19 3.86 5.81 3.85 6 0 .76-15.7.52-31.59-10.2-44.15-5.09-6-12.39-9.51-17.46-15.31-3.15-3.6-2.17-9.13-2.16-13.56V25.98c0-3.86-6-3.87-6 0z"/>
      <path class="cls-1" d="M621.48 41.73c9.9-1.35 16.38-11.55 14.39-21.09-.79-3.78-6.57-2.18-5.79 1.6 1.38 6.65-3.71 12.83-10.2 13.71-3.81.52-2.19 6.3 1.6 5.79zM596.09 43.57c3.8 9 13.68 11.51 22.6 11.55 3.86 0 3.87-6 0-6-7 0-14.41-1.45-17.42-8.58-1.5-3.55-6.67-.49-5.18 3zM635.34 70.41c7.76.48 10.57-7.2 12.18-13.45 1.65-6.44 1.24-13-4.58-17-3.18-2.21-6.18 3-3 5.18 5 3.5 1.77 19.7-4.57 19.31-3.86-.24-3.84 5.76 0 6zM615.54 77.81A27.48 27.48 0 0 0 645 83.28c3.5-1.48 2-7.29-1.6-5.79a21.64 21.64 0 0 1-23.59-3.93c-2.82-2.63-7.07 1.6-4.24 4.24zM690.26 102c1.41-10.69-6-20.94-3.62-31.41 2.48-11 14.76-16 23.74-20.54 8.35-4.25 16.84-9.75 20.34-18.9s-.28-17.85-6.87-24.33c-2.76-2.71-7 1.53-4.24 4.24 8.64 8.5 7.9 19.13-1.25 27-7.93 6.82-18.59 9.46-26.84 15.86-6.07 4.68-10.7 11.08-11.23 18.91-.67 10 5.29 19.12 4 29.16-.5 3.82 5.5 3.78 6 0z"/>
      <path class="cls-1" d="M727.9 28.81c11.71 3.26 22.49-7.77 18.49-19.4-1.25-3.63-7-2.07-5.79 1.6 2.49 7.24-3.58 14.11-11.11 12-3.73-1-5.32 4.75-1.6 5.79zM716.1 39.93a10.22 10.22 0 0 1-6.63-14.66c1.71-3.45-3.46-6.49-5.18-3-4.73 9.55-.16 20.55 10.22 23.47 3.72 1 5.31-4.74 1.6-5.79zM691.49 57.47A14.82 14.82 0 0 0 713 60.33c3-2.42-1.26-6.65-4.24-4.24a8.72 8.72 0 0 1-12-1.64c-2.24-3.1-7.45-.11-5.18 3zM666 59.27c-2.69 9.37 4.82 18.84 14.7 17.63 3.78-.46 3.83-6.47 0-6-6 .73-10.62-4.07-8.91-10 1.07-3.72-4.72-5.31-5.79-1.6z"/>
      <path class="cls-2" d="M665.75 102c4.93-2.56 7.76-7.9 11.42-11.88a29.46 29.46 0 0 0-7.85.25c-2.43 2.83-5.09 5.48-8.62 6.89a24.91 24.91 0 0 1-10.47 1.36l-.68.44a23.32 23.32 0 0 0-6.48 7.1 14.23 14.23 0 0 1 3.19-1.87c6.29-2.68 13.39.85 19.49-2.29z"/>
      <path class="cls-2" d="M676.37 112.75c2.12-1 4.63-1.39 6.45-2.95 1.64-1.41 2.62-3.45 3.67-5.3 1.43-2.51 2.73-4.77 5.79-5.21a51.09 51.09 0 0 1 9.06-.21 16.46 16.46 0 0 0-5.78-3.95 17.46 17.46 0 0 1-6.19 1.57c-5.31.55-8.25 4.78-11.45 8.54-2.51 3-5.21 5.8-9 7.07-5.54 1.88-11.65.17-17 2.85-1.43.72-2.69-1.43-1.26-2.15 4.51-2.26 9.2-1.78 14.06-2.38 5.5-.68 8.68-3.92 12.08-8 2.49-3 5-6.2 8.76-7.66a17.44 17.44 0 0 1 5.05-.86h.09c-.32-.05-.63-.11-.94-.19a25.21 25.21 0 0 1-3.76-1.5 30.4 30.4 0 0 0-5.64-1.83 36.06 36.06 0 0 0-3.7 4c-2.61 3.23-5.11 6.76-8.68 9-4.56 2.86-9.32 2-14.44 2-5.75 0-10.57 2.5-12.72 7.52v.24a40.42 40.42 0 0 0 4.61 1.93 78.14 78.14 0 0 0 21.86 3.89c1.4.05 2.83.06 4.28 0-.04-3.05 2.02-5.17 4.8-6.42zM665 91.33a50.55 50.55 0 0 0-10.74 4.76 19.39 19.39 0 0 0 4.51-.81 15.91 15.91 0 0 0 6.23-3.95zM698.31 113.24a25.47 25.47 0 0 1-2.46 3.41c8.28-1.53 14.24-3.29 14.31-3.86.31-2.56-2.21-5.73-4.28-8.25-3.49 1.28-5.65 5.6-7.57 8.7z"/>
      <path class="cls-2" d="M704.24 102.5l-.07-.09-.49-.64h-7c-3.06 0-5.41.23-7.44 3-.67.91-1.1 2-1.69 3a14.13 14.13 0 0 1-4.07 4.68c-3 2-9.31 2.09-9.36 6.72a147.57 147.57 0 0 0 17.05-1.71c5.27-3.35 7.55-12.19 13.07-14.96z"/>
      <path class="cls-1" d="M653.49 105.6c5.12 0 9.88.84 14.44-2 3.58-2.25 6.07-5.77 8.68-9a36.06 36.06 0 0 1 3.7-4 28.43 28.43 0 0 0-3.14-.51c-3.66 4-6.49 9.32-11.42 11.88-6.1 3.17-13.2-.35-19.49 2.29a14.23 14.23 0 0 0-3.19 1.87q-.36.57-.71 1.14c-1.07 1.78-2.06 3.86-1.6 5.86 2.17-5.03 6.98-7.54 12.73-7.53zM685.59 95c-3.72 1.45-6.26 4.7-8.76 7.66-3.4 4-6.58 7.28-12.08 8-4.86.6-9.55.12-14.06 2.38-1.43.72-.17 2.87 1.26 2.15 5.35-2.68 11.45-1 17-2.85 3.76-1.27 6.47-4.12 9-7.07 3.2-3.76 6.14-8 11.45-8.54a17.46 17.46 0 0 0 6.19-1.57 12.41 12.41 0 0 0-2.1-.6c-.9-.17-1.82-.24-2.73-.39h-.09a17.44 17.44 0 0 0-5.08.83zM683.44 112.45a14.13 14.13 0 0 0 4.07-4.68c.59-1 1-2.09 1.69-3 2-2.77 4.38-3 7.44-3h7a30 30 0 0 0-2.33-2.68 51.09 51.09 0 0 0-9.06.21c-3.07.43-4.37 2.7-5.79 5.21-1 1.85-2 3.9-3.67 5.3-1.82 1.56-4.34 2-6.45 2.95-2.78 1.28-4.84 3.37-4.78 6.48q1.25 0 2.5-.06c.07-4.65 6.38-4.75 9.38-6.73zM691.14 117.45c1.63-.26 3.21-.53 4.72-.8a25.47 25.47 0 0 0 2.46-3.41c1.91-3.11 4.08-7.42 7.57-8.71-.62-.75-1.19-1.44-1.65-2-5.52 2.74-7.8 11.58-13.1 14.92zM660.71 97.22c3.54-1.41 6.2-4.06 8.62-6.89a35 35 0 0 0-4.3 1 15.91 15.91 0 0 1-6.23 3.95 19.39 19.39 0 0 1-4.51.81c-1.37.79-2.72 1.62-4.05 2.5a24.91 24.91 0 0 0 10.47-1.37z"/>
      <path class="cls-3" d="M705.89 104.54c-.62-.75-3.71-4.61-4.54-5.45a16.46 16.46 0 0 0-5.78-3.95 12.41 12.41 0 0 0-2.1-.6c-.9-.17-1.82-.24-2.73-.39-.32-.05-.63-.11-.94-.19a25.21 25.21 0 0 1-3.8-1.54 30.4 30.4 0 0 0-5.64-1.83 28.43 28.43 0 0 0-3.14-.51 29.46 29.46 0 0 0-7.85.25 35 35 0 0 0-4.3 1 50.55 50.55 0 0 0-10.74 4.76c-1.37.79-2.72 1.62-4.05 2.5l-.68.44a23.32 23.32 0 0 0-6.48 7.1q-.36.57-.71 1.14c-1.07 1.78-2.06 3.86-1.6 5.86v.24a40.42 40.42 0 0 0 4.61 1.93 78.14 78.14 0 0 0 21.86 3.89c1.4.05 2.83.06 4.28 0q1.25 0 2.5-.06a147.57 147.57 0 0 0 17.05-1.71c1.63-.26 3.21-.53 4.72-.8 8.28-1.53 14.24-3.29 14.31-3.86.33-2.54-2.14-5.71-4.25-8.22z"/>
      <path class="cls-2" d="M102.91 116.82a101.76 101.76 0 0 1-23-53.23c-.7-6-.82-12.19 1.52-17.71S89.18 35.77 95.17 36a4 4 0 0 1 2.4.69c1.07.85 1.21 2.4 1.22 3.77.13 18.51-8.16 37-4.06 55.09a41.61 41.61 0 0 0 13.66 22.43"/>
      <path class="cls-1" d="M104 115.76a101.59 101.59 0 0 1-20.15-39.37c-2-7.88-3.89-16.86-2.43-25a18.79 18.79 0 0 1 5-10.2c3-3 9.8-6.49 10.84.11.62 3.93-.58 9.19-1.16 13-.54 3.58-1.21 7.15-1.83 10.72-1.19 6.86-2.32 13.8-2.18 20.79A44.59 44.59 0 0 0 107.32 119c1.45 1.27 3.58-.85 2.12-2.12a41 41 0 0 1-13.62-23.51c-1.78-9.73 0-19.67 1.68-29.28 1.35-7.69 4-17.21 2.71-25.06-.91-5.52-6.72-5.19-10.9-3.37-14.5 6.34-11.88 25.87-9.14 38.26a104.78 104.78 0 0 0 21.67 44c1.23 1.49 3.34-.64 2.12-2.12z"/>
      <path class="cls-2" d="M116.64 118.23a173.42 173.42 0 0 1-3.64-32.8c-.07-4.61.07-9.34 1.72-13.64s5.12-8.17 9.62-9.15a6.19 6.19 0 0 1 2.93 0A6.08 6.08 0 0 1 131 66.1c2.58 5.6-.52 12-2.72 17.74a61.06 61.06 0 0 0-1.9 37.29"/>
      <path class="cls-1" d="M118.08 117.83a172.9 172.9 0 0 1-3.58-32.4c-.05-4.73 0-9.79 2.07-14.16 2.23-4.72 10.91-11.83 13.51-3.22 1.54 5.11-1.56 10.73-3.28 15.4a63.57 63.57 0 0 0-3.23 12.21 64.55 64.55 0 0 0 1.32 25.88c.47 1.87 3.37 1.08 2.89-.8C124.33 107 126 94.09 130.94 81c2.26-6 5.12-20.9-5.85-20-8.92.73-12.81 10.71-13.44 18.32-1.06 13 1 26.6 3.54 39.27.38 1.89 3.28 1.09 2.89-.8z"/>
      <path class="cls-2" d="M145.71 114.84c-3.78-8-1.17-17.4.87-26s3.07-18.79-2.89-25.35c-1.63-1.8-3.7-3.19-5.26-5a13.41 13.41 0 0 1 .39-17.15 13.41 13.41 0 0 1 17.07-1.72c4 2.9 6.07 7.87 7.12 12.73a47.57 47.57 0 0 1-.58 22.46c-1.76 6.48-4.88 12.52-6.66 19-2.14 7.75-2.3 15.89-2.46 23.94"/>
      <path class="cls-1" d="M147.16 114.44c-5.6-13.36 3.8-26.86 2.36-40.55a20.42 20.42 0 0 0-6.87-13.51c-2.86-2.64-5.25-5.18-5.59-9.28a11.28 11.28 0 0 1 5.11-10.62c8.27-5.09 16.16 1.3 18.65 9.27a44.52 44.52 0 0 1 .39 23.73c-1.86 7.4-5.57 14.19-7.33 21.63s-1.9 15-2.05 22.54c0 1.93 3 1.93 3 0 .21-10.55 1-20.51 4.75-30.47 3.26-8.64 6.27-16.89 6-26.27-.35-12-6.73-29.68-22.17-24.31a13.91 13.91 0 0 0-9.29 11.83c-.83 7.75 4 10.89 8.52 16.09 6.56 7.48 3.73 18.48 1.72 27.16-1.82 7.86-3.32 15.87-.09 23.56.73 1.75 3.64 1 2.89-.8z"/>
      <path class="cls-2" d="M76.84 114.77c1.84-3.92 1.06-8.64-.84-12.53s-4.82-7.17-7.45-10.61C58 77.87 52 61.3 46.06 45c-1-2.87-2.09-6-1.11-8.91 1.46-4.3 6.55-6 11-7 1.18-.27 2.64-.46 3.42.47a3.29 3.29 0 0 1 .56 2c.81 12.42-1.63 25.27 2.15 37.13C64.5 76.34 69.36 83 73.15 90a82.54 82.54 0 0 1 9.4 31.63"/>
      <path class="cls-1" d="M78.29 115.17c2.4-6.33.19-12.5-3.49-17.84-4.5-6.54-9.51-12.49-13.33-19.51A188.25 188.25 0 0 1 51.1 54.4c-1.41-3.74-3.25-7.65-4.21-11.53s-1.06-7.14 2.24-9.55A13.32 13.32 0 0 1 55 30.91c2.81-.28 2.86.21 3.52 2.43.6 2 .09 5.05.06 7.15-.06 4.17-.26 8.35-.18 12.52.13 7.36 1.17 14.49 4.25 21.23 3.36 7.35 8.2 13.9 11.55 21.27a82.75 82.75 0 0 1 6.87 26.17c.19 1.9 3.19 1.92 3 0-1.4-14.23-6.24-26.89-13.48-39.12-4.2-7.11-7.84-14.16-8.79-22.48-.88-7.69-.14-15.45-.2-23.16 0-3.47.81-8.94-3.82-9.44-4-.43-10.19 2.3-12.72 5.45-3.83 4.76-1.07 10.77.75 15.76 2.43 6.65 4.92 13.28 7.78 19.77A122.39 122.39 0 0 0 65.21 89.6c5.11 7.26 13.9 15 10.18 24.77-.69 1.81 2.21 2.59 2.89.8z"/>
      <path class="cls-2" d="M50.89 119.81c1.64-5.5 3.3-11.21 2.51-16.9C51.73 91 40.22 83.24 34.21 72.8a35.1 35.1 0 0 1-3.94-10.32c-.56-2.69-.71-5.78 1-7.9 2-2.44 6-2.53 8.65-.85s4.26 4.69 5.14 7.73C47 67.92 46.29 75 48.69 81.29c1.2 3.14 3.12 5.94 4.73 8.89a50 50 0 0 1 5.81 29.15"/>
      <path class="cls-1" d="M52.33 120.21c3.27-11 3.91-20.5-3-30.22-6.43-9.08-15.45-16.43-17.64-27.91-.59-3.11-.61-4.37 2.11-6.35q2.23-3 5.38-.71l1.73 1.5c2.43 2.7 3.16 6.61 3.69 10.08.78 5.18.82 10.51 2.77 15.44 2.44 6.17 6.5 11.35 8.48 17.79a50.46 50.46 0 0 1 1.86 19.5c-.17 1.92 2.83 1.91 3 0a52.59 52.59 0 0 0-2.48-21.89c-2.37-6.9-7.28-12.69-9.08-19.75-2-7.66-1-29.3-14.85-26.44-12.58 2.6-2.3 21.59 1.86 27.14C40 83.46 44.55 87.93 48 93.28c5.45 8.51 4.21 16.84 1.46 26.14-.55 1.86 2.35 2.65 2.89.8z"/>
      <path class="cls-2" d="M10.15 117.66c2.93-27.1-8.57-55.75 1.42-81.11 1.76-4.48 4.29-8.84 8.22-11.61a2.53 2.53 0 0 1 1.69-.62c.91.11 1.44 1.06 1.76 1.91 2.52 6.59 1.43 14-.09 20.87-2.59 11.74-6.34 23.24-8 35.13s-1.2 24.54 4.33 35.21"/>
      <path class="cls-1" d="M11.65 117.66c1.48-15.27-1.18-30.38-2.3-45.58-.58-7.84-.78-15.81.52-23.6A55.41 55.41 0 0 1 13 36.95a33.5 33.5 0 0 1 2.71-5.41c1.35-2.13 2.75-4.9 5.25-3.9 3.71 1.5 2.25 10.5 1.75 13.82-.6 3.95-1.58 7.84-2.54 11.71-2 8-4.24 15.9-5.73 24-2.55 13.85-2.62 28.17 3.71 41 .85 1.73 3.44.21 2.59-1.51C11.61 98.11 17 77.51 21.9 58.57 24 50.35 26.77 41.63 26.18 33c-.23-3.27-1.11-11.77-6.34-9.87-5.77 2.1-9.19 11-10.87 16.23-2.48 7.73-3.18 15.92-3 24 .31 18.15 4.49 36.06 2.73 54.26-.19 1.92 2.82 1.91 3 0z"/>
      <path class="cls-2" d="M282.64 118.23a173.42 173.42 0 0 1-3.64-32.8c-.07-4.61.07-9.34 1.72-13.64s5.12-8.17 9.62-9.15a6.19 6.19 0 0 1 2.93 0A6.08 6.08 0 0 1 297 66.1c2.58 5.6-.52 12-2.72 17.74a61.06 61.06 0 0 0-1.9 37.29"/>
      <path class="cls-1" d="M284.08 117.83a172.9 172.9 0 0 1-3.58-32.4c-.05-4.73 0-9.79 2.07-14.16 2.23-4.72 10.91-11.83 13.51-3.22 1.54 5.11-1.56 10.73-3.28 15.4a63.57 63.57 0 0 0-3.23 12.21 64.55 64.55 0 0 0 1.32 25.88c.47 1.87 3.37 1.08 2.89-.8C290.33 107 292 94.09 296.94 81c2.26-6 5.12-20.9-5.85-20-8.92.73-12.81 10.71-13.44 18.32-1.06 13 1 26.6 3.54 39.27.38 1.89 3.28 1.09 2.89-.8z"/>
      <path class="cls-2" d="M311.71 114.84c-3.78-8-1.17-17.4.87-26s3.07-18.79-2.89-25.35c-1.63-1.8-3.7-3.19-5.26-5a13.41 13.41 0 0 1 .39-17.15 13.41 13.41 0 0 1 17.07-1.72c4 2.9 6.07 7.87 7.12 12.73a47.57 47.57 0 0 1-.58 22.46c-1.76 6.48-4.88 12.52-6.66 19-2.14 7.75-2.3 15.89-2.46 23.94"/>
      <path class="cls-1" d="M313.16 114.44c-5.6-13.36 3.8-26.86 2.36-40.55a20.42 20.42 0 0 0-6.87-13.51c-2.86-2.64-5.25-5.18-5.59-9.28a11.28 11.28 0 0 1 5.11-10.62c8.27-5.09 16.16 1.3 18.65 9.27a44.52 44.52 0 0 1 .39 23.73c-1.86 7.4-5.57 14.19-7.33 21.63s-1.9 15-2.05 22.54c0 1.93 3 1.93 3 0 .21-10.55 1-20.51 4.75-30.47 3.26-8.64 6.27-16.89 6-26.27-.35-12-6.73-29.68-22.17-24.31a13.91 13.91 0 0 0-9.29 11.83c-.83 7.75 4 10.89 8.52 16.09 6.56 7.48 3.73 18.48 1.72 27.16-1.82 7.86-3.32 15.87-.09 23.56.73 1.75 3.64 1 2.89-.8z"/>
      <path class="cls-2" d="M176.15 117.66c2.93-27.1-8.57-55.75 1.42-81.11 1.76-4.48 4.29-8.84 8.22-11.61a2.53 2.53 0 0 1 1.69-.62c.91.11 1.44 1.06 1.76 1.91 2.52 6.59 1.43 14-.09 20.87-2.59 11.74-6.34 23.24-8 35.13s-1.2 24.54 4.33 35.21"/>
      <path class="cls-1" d="M177.65 117.66c1.48-15.27-1.18-30.38-2.3-45.58-.58-7.84-.78-15.81.52-23.6A55.41 55.41 0 0 1 179 36.95a33.5 33.5 0 0 1 2.71-5.41c1.35-2.13 2.75-4.9 5.25-3.9 3.71 1.5 2.25 10.5 1.75 13.82-.6 3.95-1.58 7.84-2.54 11.71-2 8-4.24 15.9-5.73 24-2.55 13.85-2.62 28.17 3.71 41 .85 1.73 3.44.21 2.59-1.51-9.13-18.58-3.7-39.19 1.16-58.12 2.11-8.22 4.87-16.94 4.28-25.53-.23-3.27-1.11-11.77-6.34-9.87-5.77 2.1-9.19 11-10.87 16.23-2.48 7.73-3.18 15.92-3 24 .31 18.15 4.49 36.06 2.73 54.26-.19 1.92 2.82 1.91 3 0z"/>
      <path class="cls-2" d="M434.91 116.82a101.76 101.76 0 0 1-23-53.23c-.7-6-.82-12.19 1.52-17.71s7.71-10.11 13.7-9.92a4 4 0 0 1 2.4.69c1.07.85 1.21 2.4 1.22 3.77.13 18.51-8.16 37-4.06 55.09a41.61 41.61 0 0 0 13.66 22.43"/>
      <path class="cls-1" d="M436 115.76a101.59 101.59 0 0 1-20.12-39.37c-2-7.88-3.89-16.86-2.43-25a18.79 18.79 0 0 1 5-10.2c3-3 9.8-6.49 10.84.11.62 3.93-.58 9.19-1.16 13-.54 3.58-1.21 7.15-1.83 10.72-1.19 6.86-2.32 13.8-2.18 20.79a44.59 44.59 0 0 0 15.2 33.19c1.45 1.27 3.58-.85 2.12-2.12a41 41 0 0 1-13.63-23.52c-1.78-9.73 0-19.67 1.68-29.28 1.35-7.69 4-17.21 2.71-25.06-.91-5.52-6.72-5.19-10.9-3.37-14.5 6.34-11.87 25.87-9.14 38.26a104.78 104.78 0 0 0 21.67 44c1.23 1.49 3.34-.64 2.12-2.12z"/>
      <path class="cls-2" d="M454.64 123.23a173.42 173.42 0 0 1-3.64-32.8c-.07-4.61.07-9.34 1.72-13.64s5.12-8.17 9.62-9.15a6.19 6.19 0 0 1 2.93 0A6.08 6.08 0 0 1 469 71.1c2.58 5.6-.52 12-2.72 17.74a61.06 61.06 0 0 0-1.9 37.29"/>
      <path class="cls-1" d="M456.08 122.83a172.9 172.9 0 0 1-3.58-32.4c-.05-4.73 0-9.79 2.07-14.16 2.23-4.72 10.91-11.83 13.51-3.22 1.54 5.11-1.56 10.73-3.28 15.4a63.57 63.57 0 0 0-3.23 12.21 64.55 64.55 0 0 0 1.32 25.88c.47 1.87 3.37 1.08 2.89-.8C462.33 112 464 99.09 468.94 86c2.26-6 5.12-20.9-5.85-20-8.92.73-12.81 10.71-13.44 18.32-1.06 13 1 26.6 3.54 39.27.38 1.89 3.28 1.09 2.89-.8z"/>
      <path class="cls-2" d="M477.71 114.84c-3.78-8-1.17-17.4.87-26s3.07-18.79-2.89-25.35c-1.63-1.8-3.7-3.19-5.26-5a13.41 13.41 0 0 1 .39-17.15 13.41 13.41 0 0 1 17.07-1.72c4 2.9 6.07 7.87 7.12 12.73a47.57 47.57 0 0 1-.58 22.46c-1.76 6.48-4.88 12.52-6.66 19-2.14 7.75-2.3 15.89-2.46 23.94"/>
      <path class="cls-1" d="M479.16 114.44c-5.6-13.36 3.8-26.86 2.36-40.55a20.42 20.42 0 0 0-6.87-13.51c-2.86-2.64-5.25-5.18-5.59-9.28a11.28 11.28 0 0 1 5.11-10.62c8.27-5.09 16.16 1.3 18.65 9.27a44.52 44.52 0 0 1 .39 23.73c-1.86 7.4-5.57 14.19-7.33 21.63s-1.9 15-2.05 22.54c0 1.93 3 1.93 3 0 .21-10.55 1-20.51 4.75-30.47 3.26-8.64 6.27-16.89 6-26.27-.35-12-6.73-29.68-22.17-24.31a13.91 13.91 0 0 0-9.29 11.83c-.83 7.75 4 10.89 8.52 16.09 6.56 7.48 3.73 18.48 1.72 27.16-1.82 7.86-3.32 15.87-.09 23.56.73 1.75 3.64 1 2.89-.8z"/>
      <path class="cls-2" d="M408.84 114.77c1.84-3.92 1.06-8.64-.84-12.53s-4.82-7.17-7.45-10.61C390 77.87 384 61.3 378.06 45c-1-2.87-2.09-6-1.11-8.91 1.46-4.3 6.55-6 11-7 1.18-.27 2.64-.46 3.42.47a3.29 3.29 0 0 1 .56 2c.81 12.42-1.63 25.27 2.15 37.13C396.5 76.34 401.36 83 405.15 90a82.54 82.54 0 0 1 9.4 31.63"/>
      <path class="cls-1" d="M410.29 115.17c2.4-6.33.19-12.5-3.49-17.84-4.5-6.54-9.51-12.49-13.33-19.51A188.25 188.25 0 0 1 383.1 54.4c-1.41-3.74-3.25-7.65-4.21-11.53s-1.06-7.14 2.24-9.55a13.32 13.32 0 0 1 5.87-2.41c2.81-.28 2.86.21 3.52 2.43.6 2 .09 5.05.06 7.15-.06 4.17-.26 8.35-.18 12.52.13 7.36 1.17 14.49 4.25 21.23 3.36 7.35 8.2 13.9 11.55 21.27a82.75 82.75 0 0 1 6.87 26.17c.19 1.9 3.19 1.92 3 0-1.4-14.23-6.24-26.89-13.48-39.12-4.2-7.11-7.84-14.16-8.79-22.48-.88-7.69-.14-15.45-.2-23.16 0-3.47.81-8.94-3.82-9.44-4-.43-10.19 2.3-12.72 5.45-3.83 4.76-1.07 10.77.75 15.76 2.43 6.65 4.92 13.28 7.78 19.77a122.39 122.39 0 0 0 11.62 21.14c5.11 7.26 13.9 15 10.18 24.77-.69 1.81 2.21 2.59 2.89.8z"/>
      <path class="cls-2" d="M382.89 119.81c1.64-5.5 3.3-11.21 2.51-16.9-1.67-11.91-13.18-19.67-19.19-30.11a35.1 35.1 0 0 1-3.94-10.32c-.56-2.69-.71-5.78 1-7.9 2-2.44 6-2.53 8.65-.85s4.26 4.69 5.14 7.73c1.88 6.46 1.18 13.54 3.58 19.83 1.2 3.14 3.12 5.94 4.73 8.89a50 50 0 0 1 5.81 29.15"/>
      <path class="cls-1" d="M384.33 120.21c3.27-11 3.91-20.5-3-30.22-6.43-9.08-15.45-16.43-17.64-27.91-.59-3.11-.61-4.37 2.11-6.35q2.23-3 5.38-.71l1.73 1.5c2.43 2.7 3.16 6.61 3.69 10.08.78 5.18.82 10.51 2.77 15.44 2.44 6.17 6.5 11.35 8.48 17.79a50.46 50.46 0 0 1 1.86 19.5c-.17 1.92 2.83 1.91 3 0a52.59 52.59 0 0 0-2.48-21.89c-2.37-6.9-7.28-12.69-9.08-19.75-2-7.66-1-29.3-14.85-26.44-12.61 2.6-2.32 21.59 1.83 27.14 3.8 5.07 8.4 9.54 11.82 14.89 5.45 8.51 4.21 16.84 1.46 26.14-.55 1.86 2.35 2.65 2.89.8z"/>
      <path class="cls-2" d="M342.15 117.66c2.93-27.1-8.57-55.75 1.42-81.11 1.76-4.48 4.29-8.84 8.22-11.61a2.53 2.53 0 0 1 1.69-.62c.91.11 1.44 1.06 1.76 1.91 2.52 6.59 1.43 14-.09 20.87-2.59 11.74-6.34 23.24-8 35.13s-1.2 24.54 4.33 35.21"/>
      <path class="cls-1" d="M343.65 117.66c1.48-15.27-1.18-30.38-2.3-45.58-.58-7.84-.78-15.81.52-23.6A55.41 55.41 0 0 1 345 36.95a33.5 33.5 0 0 1 2.71-5.41c1.35-2.13 2.75-4.9 5.25-3.9 3.71 1.5 2.25 10.5 1.75 13.82-.6 3.95-1.58 7.84-2.54 11.71-2 8-4.24 15.9-5.73 24-2.55 13.85-2.62 28.17 3.71 41 .85 1.73 3.44.21 2.59-1.51-9.13-18.58-3.7-39.19 1.16-58.12 2.11-8.22 4.87-16.94 4.28-25.53-.23-3.27-1.11-11.77-6.34-9.87-5.77 2.1-9.19 11-10.87 16.23-2.48 7.73-3.18 15.92-3 24 .31 18.15 4.49 36.06 2.73 54.26-.19 1.92 2.82 1.91 3 0z"/>
      <path class="cls-2" d="M548.27 114.77c-1.84-3.92-1.06-8.64.84-12.53s4.82-7.17 7.45-10.61C567.07 77.87 573.14 61.3 579.05 45c1-2.87 2.09-6 1.11-8.91-1.46-4.3-6.55-6-11-7-1.18-.27-2.64-.46-3.42.47a3.29 3.29 0 0 0-.56 2c-.79 12.44 1.65 25.27-2.18 37.13-2.39 7.65-7.26 14.31-11 21.31a82.54 82.54 0 0 0-9.4 31.63"/>
      <path class="cls-1" d="M549.71 114.37c-3.28-8.65 3.29-15.6 8.14-22A109.54 109.54 0 0 0 569 73.94c3-6.1 5.51-12.4 7.91-18.75 2.08-5.51 6.74-13.45 4.71-19.49-1.78-5.3-16.23-13.15-17.84-4.67-1.34 7 .08 14.87 0 22a50.55 50.55 0 0 1-6.17 24.31c-3.68 6.73-7.87 13.09-10.75 20.24a87 87 0 0 0-5.75 24.11c-.19 1.92 2.81 1.91 3 0a82.8 82.8 0 0 1 6.87-26.17c3.34-7.37 8.2-13.91 11.55-21.27 3.07-6.74 4.13-13.87 4.25-21.23.07-4.17-.13-8.35-.18-12.52v-6.26c.09-2.89.5-3.63 3.55-3.32a14.48 14.48 0 0 1 4.9 1.78c4.08 2.25 4.28 5.81 3.19 10.18-1 3.89-2.8 7.79-4.21 11.53a187.59 187.59 0 0 1-10.37 23.41c-3.83 7-8.81 13-13.33 19.51-3.69 5.35-5.9 11.5-3.49 17.84.68 1.79 3.58 1 2.89-.8z"/>
      <path class="cls-2" d="M532.52 122.81c-1.64-5.5-3.3-11.21-2.51-16.9C531.68 94 543.19 86.24 549.2 75.8a35.1 35.1 0 0 0 3.94-10.32c.56-2.69.71-5.78-1-7.9-2-2.44-6-2.53-8.65-.85s-4.26 4.69-5.14 7.73c-1.88 6.46-1.18 13.54-3.58 19.83-1.2 3.14-3.12 5.94-4.73 8.89a50 50 0 0 0-5.81 29.15"/>
      <path class="cls-1" d="M534 122.41c-2.74-9.28-4-17.62 1.46-26.14 3.41-5.35 8-9.82 11.82-14.89 4.09-5.46 14.49-24.7 1.83-27.14-13.91-2.69-12.89 18.65-14.85 26.44-1.77 7.05-6.71 12.87-9.08 19.75a52.45 52.45 0 0 0-2.48 21.89c.17 1.91 3.17 1.93 3 0a50.75 50.75 0 0 1 1.86-19.5c1.88-6.18 5.66-11.16 8.15-17 2-4.72 2.24-9.72 2.88-14.74.46-3.61 1-7.58 3.24-10.6 1.2-1.63 3.27-3.52 5.53-3.38 5.19.32 4.95 4.8 4.35 8-2.11 11.23-10.83 18.52-17.23 27.32-7.19 9.9-6.75 19.41-3.39 30.8.55 1.85 3.44 1.06 2.89-.8z"/>
      <path class="cls-2" d="M508.15 117.66c2.93-27.1-8.57-55.75 1.42-81.11 1.76-4.48 4.29-8.84 8.22-11.61a2.53 2.53 0 0 1 1.69-.62c.91.11 1.44 1.06 1.76 1.91 2.52 6.59 1.43 14-.09 20.87-2.59 11.74-6.34 23.24-8 35.13s-1.2 24.54 4.33 35.21"/>
      <path class="cls-1" d="M509.65 117.66c1.48-15.27-1.18-30.38-2.3-45.58-.58-7.84-.78-15.81.52-23.6A55.41 55.41 0 0 1 511 36.95a33.5 33.5 0 0 1 2.71-5.41c1.35-2.13 2.75-4.9 5.25-3.9 3.71 1.5 2.25 10.5 1.75 13.82-.6 3.95-1.58 7.84-2.54 11.71-2 8-4.24 15.9-5.73 24-2.55 13.85-2.62 28.17 3.71 41 .85 1.73 3.44.21 2.59-1.51-9.13-18.58-3.7-39.19 1.16-58.12 2.11-8.22 4.87-16.94 4.28-25.53-.23-3.27-1.11-11.77-6.34-9.87-5.77 2.1-9.19 11-10.87 16.23-2.48 7.73-3.18 15.92-3 24 .31 18.15 4.49 36.06 2.73 54.26-.19 1.92 2.82 1.91 3 0z"/>
      <path class="cls-2" d="M766.91 116.82a101.76 101.76 0 0 1-23-53.23c-.7-6-.82-12.19 1.52-17.71s7.71-10.11 13.7-9.92a4 4 0 0 1 2.4.69c1.07.85 1.21 2.4 1.22 3.77.13 18.51-8.16 37-4.06 55.09a41.61 41.61 0 0 0 13.66 22.43"/>
      <path class="cls-1" d="M768 115.76a101.59 101.59 0 0 1-20.12-39.37c-2-7.88-3.89-16.86-2.43-25a18.79 18.79 0 0 1 5-10.2c3-3 9.8-6.49 10.84.11.62 3.93-.58 9.19-1.16 13-.54 3.58-1.21 7.15-1.83 10.72-1.19 6.86-2.32 13.8-2.18 20.79a44.59 44.59 0 0 0 15.2 33.19c1.45 1.27 3.58-.85 2.12-2.12a41 41 0 0 1-13.63-23.52c-1.78-9.73 0-19.67 1.68-29.28 1.35-7.69 4-17.21 2.71-25.06-.91-5.52-6.72-5.19-10.9-3.37-14.5 6.34-11.87 25.87-9.14 38.26a104.78 104.78 0 0 0 21.67 44c1.23 1.49 3.34-.64 2.12-2.12z"/>
      <path class="cls-2" d="M790.64 118.23a173.42 173.42 0 0 1-3.64-32.8c-.07-4.61.07-9.34 1.72-13.64s5.12-8.17 9.62-9.15a6.19 6.19 0 0 1 2.93 0A6.08 6.08 0 0 1 805 66.1c2.58 5.6-.52 12-2.72 17.74a61.06 61.06 0 0 0-1.9 37.29"/>
      <path class="cls-1" d="M792.08 117.83a172.9 172.9 0 0 1-3.58-32.4c-.05-4.73 0-9.79 2.07-14.16 2.23-4.72 10.91-11.83 13.51-3.22 1.54 5.11-1.56 10.73-3.28 15.4a63.57 63.57 0 0 0-3.23 12.21 64.55 64.55 0 0 0 1.32 25.88c.47 1.87 3.37 1.08 2.89-.8C798.33 107 800 94.09 804.94 81c2.26-6 5.12-20.9-5.85-20-8.92.73-12.81 10.71-13.44 18.32-1.06 13 1 26.6 3.54 39.27.38 1.89 3.28 1.09 2.89-.8z"/>
      <path class="cls-2" d="M819.71 114.84c-3.78-8-1.17-17.4.87-26s3.07-18.79-2.89-25.35c-1.63-1.8-3.7-3.19-5.26-5a13.41 13.41 0 0 1 .39-17.15 13.41 13.41 0 0 1 17.07-1.72c4 2.9 6.07 7.87 7.12 12.73a47.57 47.57 0 0 1-.58 22.46c-1.76 6.48-4.88 12.52-6.66 19-2.14 7.75-2.3 15.89-2.46 23.94"/>
      <path class="cls-1" d="M821.16 114.44c-5.6-13.36 3.8-26.86 2.36-40.55a20.42 20.42 0 0 0-6.87-13.51c-2.86-2.64-5.25-5.18-5.59-9.28a11.28 11.28 0 0 1 5.11-10.62c8.27-5.09 16.16 1.3 18.65 9.27a44.52 44.52 0 0 1 .39 23.73c-1.86 7.4-5.57 14.19-7.33 21.63s-1.9 15-2.05 22.54c0 1.93 3 1.93 3 0 .21-10.55 1-20.51 4.75-30.47 3.26-8.64 6.27-16.89 6-26.27-.35-12-6.73-29.68-22.17-24.31a13.91 13.91 0 0 0-9.29 11.83c-.83 7.75 4 10.89 8.52 16.09 6.56 7.48 3.73 18.48 1.72 27.16-1.82 7.86-3.32 15.87-.09 23.56.73 1.75 3.64 1 2.89-.8z"/>
      <path class="cls-2" d="M955.91 116.82a101.76 101.76 0 0 1-23-53.23c-.7-6-.82-12.19 1.52-17.71s7.71-10.11 13.7-9.92a4 4 0 0 1 2.4.69c1.07.85 1.21 2.4 1.22 3.77.13 18.51-8.16 37-4.06 55.09a41.61 41.61 0 0 0 13.66 22.43"/>
      <path class="cls-1" d="M957 115.76a101.59 101.59 0 0 1-20.12-39.37c-2-7.88-3.89-16.86-2.43-25a18.79 18.79 0 0 1 5-10.2c3-3 9.8-6.49 10.84.11.62 3.93-.58 9.19-1.16 13-.54 3.58-1.21 7.15-1.83 10.72-1.19 6.86-2.32 13.8-2.18 20.79a44.59 44.59 0 0 0 15.2 33.19c1.45 1.27 3.58-.85 2.12-2.12a41 41 0 0 1-13.63-23.52c-1.78-9.73 0-19.67 1.68-29.28 1.35-7.69 4-17.21 2.71-25.06-.91-5.52-6.72-5.19-10.9-3.37-14.5 6.34-11.87 25.87-9.14 38.26a104.78 104.78 0 0 0 21.67 44c1.23 1.49 3.34-.64 2.12-2.12z"/>
      <path class="cls-2" d="M969.64 118.23a173.42 173.42 0 0 1-3.64-32.8c-.07-4.61.07-9.34 1.72-13.64s5.12-8.17 9.62-9.15a6.19 6.19 0 0 1 2.93 0A6.08 6.08 0 0 1 984 66.1c2.58 5.6-.52 12-2.72 17.74a61.06 61.06 0 0 0-1.9 37.29"/>
      <path class="cls-1" d="M971.08 117.83a172.9 172.9 0 0 1-3.58-32.4c-.05-4.73 0-9.79 2.07-14.16 2.23-4.72 10.91-11.83 13.51-3.22 1.54 5.11-1.56 10.73-3.28 15.4a63.57 63.57 0 0 0-3.23 12.21 64.55 64.55 0 0 0 1.32 25.88c.47 1.87 3.37 1.08 2.89-.8C977.33 107 979 94.09 983.94 81c2.26-6 5.12-20.9-5.85-20-8.92.73-12.81 10.71-13.44 18.32-1.06 13 1 26.6 3.54 39.27.38 1.89 3.28 1.09 2.89-.8z"/>
      <path class="cls-2" d="M998.71 114.84c-3.78-8-1.17-17.4.87-26s3.07-18.79-2.89-25.35c-1.63-1.8-3.7-3.19-5.26-5a13.41 13.41 0 0 1 .39-17.15 13.41 13.41 0 0 1 17.07-1.72c4 2.9 6.07 7.87 7.12 12.73a47.57 47.57 0 0 1-.58 22.46c-1.76 6.48-4.88 12.52-6.66 19-2.14 7.75-2.3 15.89-2.46 23.94"/>
      <path class="cls-1" d="M1000.16 114.44c-5.6-13.36 3.8-26.86 2.36-40.55a20.42 20.42 0 0 0-6.87-13.51c-2.86-2.64-5.25-5.18-5.59-9.28a11.28 11.28 0 0 1 5.11-10.62c8.27-5.09 16.16 1.3 18.65 9.27a44.52 44.52 0 0 1 .39 23.73c-1.86 7.4-5.57 14.19-7.33 21.63s-1.9 15-2.05 22.54c0 1.93 3 1.93 3 0 .21-10.55 1-20.51 4.75-30.47 3.26-8.64 6.27-16.89 6-26.27-.35-12-6.73-29.68-22.17-24.31a13.91 13.91 0 0 0-9.29 11.83c-.83 7.75 4 10.89 8.52 16.09 6.56 7.51 3.74 18.49 1.72 27.16-1.82 7.86-3.32 15.87-.09 23.56.73 1.75 3.64 1 2.89-.8z"/>
      <path class="cls-2" d="M929.84 114.77c1.84-3.92 1.06-8.64-.84-12.53s-4.82-7.17-7.45-10.61C911 77.87 905 61.3 899.06 45c-1-2.87-2.09-6-1.11-8.91 1.46-4.3 6.55-6 11-7 1.18-.27 2.64-.46 3.42.47a3.29 3.29 0 0 1 .56 2c.81 12.42-1.63 25.27 2.15 37.13C917.5 76.34 922.36 83 926.15 90a82.54 82.54 0 0 1 9.4 31.63"/>
      <path class="cls-1" d="M931.29 115.17c2.4-6.33.19-12.5-3.49-17.84-4.5-6.54-9.51-12.49-13.33-19.51A188.25 188.25 0 0 1 904.1 54.4c-1.41-3.74-3.25-7.65-4.21-11.53s-1.06-7.14 2.24-9.55a13.32 13.32 0 0 1 5.87-2.41c2.81-.28 2.86.21 3.52 2.43.6 2 .09 5.05.06 7.15-.06 4.17-.26 8.35-.18 12.52.13 7.36 1.17 14.49 4.25 21.23 3.36 7.35 8.2 13.9 11.55 21.27a82.75 82.75 0 0 1 6.87 26.17c.19 1.9 3.19 1.92 3 0-1.4-14.23-6.24-26.89-13.48-39.12-4.2-7.11-7.84-14.16-8.79-22.48-.88-7.69-.14-15.45-.2-23.16 0-3.47.81-8.94-3.82-9.44-4-.43-10.19 2.3-12.72 5.45-3.83 4.76-1.07 10.77.75 15.76 2.43 6.65 4.92 13.28 7.78 19.77a122.39 122.39 0 0 0 11.62 21.14c5.11 7.26 13.9 15 10.18 24.77-.69 1.81 2.21 2.59 2.89.8z"/>
      <path class="cls-2" d="M903.89 119.81c1.64-5.5 3.3-11.21 2.51-16.9-1.67-11.91-13.18-19.67-19.19-30.11a35.1 35.1 0 0 1-3.94-10.32c-.56-2.69-.71-5.78 1-7.9 2-2.44 6-2.53 8.65-.85s4.26 4.69 5.14 7.73c1.88 6.46 1.18 13.54 3.58 19.83 1.2 3.14 3.12 5.94 4.73 8.89a50 50 0 0 1 5.81 29.15"/>
      <path class="cls-1" d="M905.33 120.21c3.27-11 3.91-20.5-3-30.22-6.43-9.08-15.45-16.43-17.64-27.91-.59-3.11-.61-4.37 2.11-6.35q2.23-3 5.38-.71l1.73 1.5c2.43 2.7 3.16 6.61 3.69 10.08.78 5.18.82 10.51 2.77 15.44 2.44 6.17 6.5 11.35 8.48 17.79a50.46 50.46 0 0 1 1.86 19.5c-.17 1.92 2.83 1.91 3 0a52.59 52.59 0 0 0-2.48-21.89c-2.37-6.9-7.28-12.69-9.08-19.75-2-7.66-1-29.3-14.85-26.44-12.61 2.6-2.32 21.59 1.83 27.14 3.8 5.07 8.4 9.54 11.82 14.89 5.45 8.51 4.21 16.84 1.46 26.14-.55 1.86 2.35 2.65 2.89.8z"/>
      <path class="cls-2" d="M863.15 117.66c2.93-27.1-8.57-55.75 1.42-81.11 1.76-4.48 4.29-8.84 8.22-11.61a2.53 2.53 0 0 1 1.69-.62c.91.11 1.44 1.06 1.76 1.91 2.52 6.59 1.43 14-.09 20.87-2.59 11.74-6.34 23.24-8 35.13s-1.2 24.54 4.33 35.21"/>
      <path class="cls-1" d="M864.65 117.66c1.48-15.27-1.18-30.38-2.3-45.58-.58-7.84-.78-15.81.52-23.6A55.41 55.41 0 0 1 866 36.95a33.5 33.5 0 0 1 2.71-5.41c1.35-2.13 2.75-4.9 5.25-3.9 3.71 1.5 2.25 10.5 1.75 13.82-.6 3.95-1.58 7.84-2.54 11.71-2 8-4.24 15.9-5.73 24-2.55 13.85-2.62 28.17 3.71 41 .85 1.73 3.44.21 2.59-1.51-9.13-18.58-3.7-39.19 1.16-58.12 2.11-8.22 4.87-16.94 4.28-25.53-.23-3.27-1.11-11.77-6.34-9.87-5.77 2.1-9.19 11-10.87 16.23-2.48 7.73-3.18 15.92-3 24 .31 18.15 4.49 36.06 2.73 54.26-.19 1.92 2.82 1.91 3 0z"/>
      <path class="cls-2" d="M590.16 116.52a41.33 41.33 0 0 1-4.92 12.16h3.55a101.85 101.85 0 0 0 16.15-44.09c.7-6 .82-12.19-1.52-17.71s-7.71-10.11-13.7-9.92a4 4 0 0 0-2.4.69c-1.07.85-1.21 2.4-1.22 3.77-.1 18.52 8.15 37.04 4.06 55.1z"/>
      <path class="cls-1" d="M588.71 116.12a45.05 45.05 0 0 1-4.77 11.8 1.51 1.51 0 0 0 1.3 2.26c1.06 0 2.93.4 3.95-.05 2.09-.94 3.52-4.83 4.56-6.68a104.8 104.8 0 0 0 8.56-19.63c3.86-12.1 8.54-30.24.21-41.47-2.89-3.89-7.74-7.22-12.8-6.89-5.74.38-5.25 5.94-5 10.44 1 16.8 7.45 33.31 4 50.21-.39 1.88 2.51 2.69 2.89.8 2.24-10.94.59-21.77-1.32-32.63A152.85 152.85 0 0 1 587.67 65c-.09-2-.4-3.4 1-5.06 1.51-1.81 2.36-1.67 4.68-.95a14.43 14.43 0 0 1 7.5 6.18c6.41 10.39 2.2 26.18-1.16 37a100.28 100.28 0 0 1-7.26 17.44c-.9 1.7-2.58 6-3.93 7.19-.59.51-2.07.36-3.25.36l1.3 2.26a47.94 47.94 0 0 0 5.07-12.52c.45-1.9-2.44-2.66-2.91-.78z"/>
      <path class="cls-4" d="M506.44 118.94c-.57-2.75-1.14-5.58-.59-8.33s2.53-5.41 5.3-5.87c1.44-.24 3 .13 4.33-.4 2.16-.84 2.9-3.43 4.06-5.44a9.11 9.11 0 0 1 6.57-4.59 6.83 6.83 0 0 1 6.89 3.57c2.28-2 4.92-3.81 7.93-4.15s6.44 1.27 7.21 4.27a13.31 13.31 0 0 0 .75 3.16c2.21 4 10.25-.7 12.36 3.35.88 1.7.16 4.36 1.87 5.21a4.75 4.75 0 0 0 2.41.12 6.6 6.6 0 0 1 4.84 11.49"/>
      <path class="cls-5" d="M507.89 118.54c-1.07-5.33-1.44-10.35 4.72-12.39 1.69-.56 3.14 0 4.75-1.18 1.28-1 1.87-2.4 2.65-3.73 2.35-4 7.8-8.79 11.71-2.59a1.53 1.53 0 0 0 2.36.3c3.23-2.69 7.18-5.19 10.85-2.09 2.16 1.83 1.4 2.54 2.51 4.65a5.65 5.65 0 0 0 .71 1.09c1.6 1.87 4.16 1.78 6.41 1.7s4.48-.76 5.61 1.67c.57 1.22.14 2.72 1 3.9s1.54 1.08 2.72 1.45c.54.17 1.1-.12 1.64 0 4.26.6 7.15 5.12 3.78 8.93-1.28 1.44.84 3.57 2.12 2.12 3.45-3.9 3.52-9.89-1.27-12.83a10.26 10.26 0 0 0-3.28-1.15 6.38 6.38 0 0 1-3.46-.79q-.19-1.19-.36-2.38a4.91 4.91 0 0 0-3.06-3.62c-2.31-.91-4.71.08-7.05-.24-3.79-.53-3-5.28-6-7.46-5.06-3.77-10.89-.52-15 2.93l2.36.3a8.57 8.57 0 0 0-8.6-4.27c-4.3.6-6.08 3.63-8.29 6.86-2.75 4-8 2.57-11.05 6.33s-2.28 8.83-1.38 13.28c.38 1.89 3.27 1.09 2.89-.8z"/>
      <path class="cls-5" d="M515.42 115.92c-.86-6.44 5-4.74 8.44-7.2 1.87-1.34 2.92-3.36 5-4.57q3.57-2.37 7.62.2.77.95 1.63 1.82c1.85 1.49 4 1.66 6.27 1.54 1.39-.07 3.23-.66 4.6-.32 4.89 1.22 3.1 8.54 2.32 11.42a1.5 1.5 0 0 0 2.89.8c1.19-4.38 2.64-12.57-2.82-14.78-2.23-.9-4.71-.21-7-.13-4.17.16-5.21-3-8.71-4.29a9.5 9.5 0 0 0-7 .46c-3.19 1.44-4.94 5-8.23 6-2.2.71-3.84.35-5.7 2.1a7.79 7.79 0 0 0-2.26 6.88c.25 1.89 3.26 1.91 3 0z"/>
      <path class="cls-5" d="M524.82 117.81c-.67-2.83.65-2.54 2.68-3a12.92 12.92 0 0 0 4.34-2.24c3-2 4.62-3.2 7.8.93a69.83 69.83 0 0 1 4.19 7.06 1.5 1.5 0 0 0 2.59-1.51c-3.18-5.38-6.76-14.67-14.4-10.21-1.65 1-3 2.33-4.88 2.84-1.27.34-2.68.07-3.84.76-2.16 1.29-1.89 4-1.39 6.15.44 1.88 3.34 1.08 2.89-.8z"/>
      <path class="cls-4" d="M838.44 113.94c-.57-2.75-1.14-5.58-.59-8.33s2.53-5.41 5.3-5.87c1.44-.24 3 .13 4.33-.4 2.16-.84 2.9-3.43 4.06-5.44a9.11 9.11 0 0 1 6.57-4.59 6.83 6.83 0 0 1 6.89 3.57c2.28-2 4.92-3.81 7.93-4.15s6.44 1.27 7.21 4.27a13.31 13.31 0 0 0 .75 3.16c2.21 4 10.25-.7 12.36 3.35.88 1.7.16 4.36 1.87 5.21a4.75 4.75 0 0 0 2.41.12 6.6 6.6 0 0 1 4.84 11.49"/>
      <path class="cls-5" d="M839.89 113.54c-1.07-5.33-1.44-10.35 4.72-12.39 1.69-.56 3.14 0 4.75-1.18 1.28-1 1.87-2.4 2.65-3.73 2.35-4 7.8-8.79 11.71-2.59a1.53 1.53 0 0 0 2.36.3c3.23-2.69 7.18-5.19 10.85-2.09 2.16 1.83 1.4 2.54 2.51 4.65a5.65 5.65 0 0 0 .71 1.09c1.6 1.87 4.16 1.78 6.41 1.7s4.48-.76 5.61 1.67c.57 1.22.14 2.72 1 3.9s1.54 1.08 2.72 1.45c.54.17 1.1-.12 1.64 0 4.26.6 7.15 5.12 3.78 8.93-1.28 1.44.84 3.57 2.12 2.12 3.45-3.9 3.52-9.89-1.27-12.83a10.26 10.26 0 0 0-3.28-1.15 6.38 6.38 0 0 1-3.46-.79q-.19-1.19-.36-2.38A4.91 4.91 0 0 0 892 96.6c-2.31-.91-4.71.08-7.05-.24-3.79-.53-3-5.28-6-7.46-5.06-3.77-10.89-.52-15 2.93l2.36.3a8.57 8.57 0 0 0-8.6-4.27c-4.3.6-6.08 3.63-8.29 6.86-2.75 4-8 2.57-11.05 6.33s-2.28 8.83-1.38 13.28c.38 1.89 3.27 1.09 2.89-.8z"/>
      <path class="cls-5" d="M847.42 110.92c-.86-6.44 5-4.74 8.44-7.2 1.87-1.34 2.92-3.36 5-4.57q3.57-2.37 7.62.2.77.95 1.63 1.82c1.85 1.49 4 1.66 6.27 1.54 1.39-.07 3.23-.66 4.6-.32 4.89 1.22 3.1 8.54 2.32 11.42a1.5 1.5 0 0 0 2.89.8c1.19-4.38 2.64-12.57-2.82-14.78-2.23-.9-4.71-.21-7-.13-4.17.16-5.21-3-8.71-4.29a9.5 9.5 0 0 0-7 .46c-3.19 1.44-4.94 5-8.23 6-2.2.71-3.84.35-5.7 2.1a7.79 7.79 0 0 0-2.26 6.88c.25 1.89 3.26 1.91 3 0z"/>
      <path class="cls-5" d="M856.82 112.81c-.67-2.83.65-2.54 2.68-3a12.92 12.92 0 0 0 4.34-2.24c3-2 4.62-3.2 7.8.93a69.83 69.83 0 0 1 4.19 7.06 1.5 1.5 0 0 0 2.59-1.51c-3.18-5.38-6.76-14.67-14.4-10.21-1.65 1-3 2.33-4.88 2.84-1.27.34-2.68.07-3.84.76-2.16 1.29-1.89 4-1.39 6.15.44 1.88 3.34 1.08 2.89-.8z"/>
      <path class="cls-6" d="M0 115.68c47 0 66.93-3.34 79.3-5.33 26.3-4.23 31.9 1 59.28-1.5 11.74-1.07 23.91-2.15 35.72-1.26 15.5 1.17 28.78 5.57 43.16 8.43 20.83 4.14 45-1.9 66.77-4.87 11.1-1.51 21.19 2.82 32.33 1.37 99.2-12.88 141.42 3.08 194.92 3.08s67.69-3.38 80.06-5.37c26.3-4.23 31.9 1 59.28-1.44 11.74-1.07 23.79-2.12 35.6-1.23 15.5 1.17 28.71 5.58 43.09 8.44 20.83 4.14 44.95-1.89 66.74-4.86 11.1-1.51 21.18 2.82 32.32 1.38 99.2-12.88 143.07 3.17 195.42 3.17v13H0z"/>


</svg>
