<svg class="fish" xmlns="http://www.w3.org/2000/svg" viewBox="0 0 127.46 84.82" xml:space="preserve" preserveAspectRatio="xMinYMin meet" width="100%" height="100%">
  
      <path class="cls-1" d="M39.7 68.9c8.3 8.1 19.74 13.6 31.67 14 31.5 1 32.43-18.2 30.8-25.86"/>
      <path class="cls-1" d="M37.83 21.16c5.86-7.7 16.7-13.35 30.62-16.8 19-4.7 24.62-3 28.3 1.58 6.32 7.84 4.3 19.9 3.12 26"/>
      <path class="cls-1" d="M125.42 30.52c0-4.5-3.6-9.15-9.88-2.7 0 0-9.62 11.7-17.12 2.65 0 0-35.5-35.72-72.7 0-8 7.64-7.53 14.12-19 14.12C4.94 44.6 2 46.4 2 48.06v3.28c0 2.05 3.65 3.56 5.77 3.56 10.1 0 16.1 3 17.08 3.86 37.65 32.94 73.32 0 73.32 0 7.33-5.56 17.62 3.14 17.62 3.14 5.87 5.3 9.66 2.3 9.66-1.5 0-4-2-8.6-2-15.06.03-7.23 1.96-10.34 1.96-14.82z"/>
      <path class="cls-2" d="M49.5 16.76c13.05 11.36 14.23 42.36 0 55.74"/>
      <circle class="cls-3" cx="37.5" cy="44.61" r="8.48"/>
      <circle class="cls-4" cx="37.5" cy="44.61" r="5.48"/>
      <circle class="cls-5" cx="39.88" cy="42.23" r="3.1"/>
      <path class="cls-2" d="M58.25 14.6s3.75-7.17 8.6-9.83"/>
      <path class="cls-2" d="M70 15.5s4.1-9.33 12.24-13.74"/>
      <path class="cls-2" d="M80.83 18.92S83 10.54 92 2.45"/>
      <path class="cls-2" d="M88.94 23.2a72.07 72.07 0 0 0 8.9-15.73"/>
      <path class="cls-2" d="M58.25 73.4s4 6.47 9.55 9.2"/>
      <path class="cls-2" d="M70 72.5c2.7 5 10.86 10 10.86 10"/>
      <path class="cls-2" d="M82.6 68.5l6.34 12.15"/>
      <path class="cls-2" d="M92 63.4c2 6.13 2.92 8.1 3 14.1"/>
      <path class="cls-6" d="M38.9 22.22C44 15.74 51.35 11.66 59 8.8c8.1-3 17.32-5.5 26-5.72 15.5-.42 15.6 16.9 13.38 28.47-.36 1.9 2.53 2.7 2.9.8C103.47 21 103.93 2 88.75.22c-9.18-1.06-19.63 2-28.2 4.87-9 3-17.8 7.48-23.78 15-1.2 1.5.92 3.62 2.12 2.1z"/>
      <path class="cls-6" d="M38.63 70c13.73 12.92 36.9 20 54.52 10.45 8.7-4.7 12.37-14.3 10.47-23.77-.38-1.9-3.27-1.1-2.9.8 1.66 8.17-1.6 16.35-9.08 20.4-16.4 8.84-38.18 2-50.9-10-1.4-1.33-3.52.78-2.1 2.1z"/>
      <path class="cls-2" d="M106.17 40c4.33-.33 12-2.36 19.25-9.5"/>
      <path class="cls-2" d="M106.17 46.7a66.92 66.92 0 0 1 16.5 0"/>
      <path class="cls-2" d="M106.17 52.2s12.5.3 19.17 6.3"/>
      <path class="cls-7" d="M125.42 30.52c0-4.5-3.6-9.15-9.88-2.7 0 0-9.62 11.7-17.12 2.65 0 0-35.5-35.72-72.7 0-8 7.64-7.53 14.12-19 14.12C4.94 44.6 2 46.4 2 48.06v3.28c0 2.05 3.65 3.56 5.77 3.56 10.1 0 16.1 3 17.08 3.86 37.65 32.94 73.32 0 73.32 0 7.33-5.56 17.62 3.14 17.62 3.14 5.87 5.3 9.66 2.3 9.66-1.5 0-4-2-8.6-2-15.06.03-7.23 1.96-10.34 1.96-14.82z"/>


</svg>
