<svg class="submarine" xmlns="http://www.w3.org/2000/svg" viewBox="0 0 516 415.18" xml:space="preserve" preserveAspectRatio="xMinYMin meet" width="100%" height="100%">


      <g class="periscope">
        <path class="cls-1" d="M348.88 100.34h-16.06a4 4 0 0 1-4-4v-53.4C328.81 19.78 344.34 4 366 4h31.86a4 4 0 0 1 4 4v16.07a4 4 0 0 1-4 4H366c-4.74 0-13.1 1.58-13.1 14.85v53.41a4 4 0 0 1-4.02 4.01z"/>
        <path class="cls-2" d="M390.23 28.09h7.63a4 4 0 0 0 4-4V8a4 4 0 0 0-4-4h-7.63z"/>
        <path class="cls-3" d="M391 2.44v26M328 43.44h24"/>
        <circle class="cls-4" cx="337.66" cy="34.74" r="2.01" transform="rotate(-36 337.65 34.73)"/>
        <circle class="cls-4" cx="381.81" cy="19.48" r="2.01" transform="rotate(-36 381.82 19.48)"/>
        <circle class="cls-4" cx="343.28" cy="49.99" r="2.01" transform="rotate(-36 343.28 49.98)"/>
        <path class="cls-5" d="M348.88 100.34h-16.06a4 4 0 0 1-4-4v-53.4C328.81 19.78 344.34 4 366 4h31.86a4 4 0 0 1 4 4v16.07a4 4 0 0 1-4 4H366c-4.74 0-13.1 1.58-13.1 14.85v53.41a4 4 0 0 1-4.02 4.01z"/>
      </g>
      <g class="body">
        <g class="roof">
          <rect class="cls-6" x="260.38" y="69.91" width="116.24" height="66.25" rx="15" ry="15"/>
          <path class="cls-7" d="M261 82.44h115"/>
          <circle class="cls-4" cx="274.23" cy="90.94" r="2.01" transform="rotate(-36 274.24 90.94)"/>
          <circle class="cls-4" cx="295.91" cy="90.94" r="2.01" transform="rotate(-36 295.91 90.94)"/>
          <circle class="cls-4" cx="317.59" cy="90.94" r="2.01" transform="rotate(-36 317.58 90.94)"/>
          <circle class="cls-4" cx="339.26" cy="90.94" r="2.01" transform="rotate(-36 339.26 90.94)"/>
          <circle class="cls-4" cx="360.94" cy="90.94" r="2.01" transform="rotate(-36 360.94 90.94)"/>
        </g>
        <g class="fins">
          <path class="cls-8" d="M140 199c9-16.24-1.93-22.59-24.28-33-9.19-4.27-12.76-7.14-12.76-16.91V85.06c0-8.4 4.91-15 14.76-15s84-3.3 108.74 57.6z"/>
          <path class="cls-7" d="M131 174.44V90.76l-27.91-5.26"/>
          <circle class="cls-4" cx="138.49" cy="100.61" r="2.01" transform="rotate(-36 138.49 100.61)"/>
          <circle class="cls-4" cx="138.49" cy="154.63" r="2.01" transform="rotate(-36 138.48 154.63)"/>
        </g>
        <path class="cls-6" d="M146.35 303.71l-67.59-35.27v-24.55l67.59-35.28v95.1z"/>
        <path class="cls-1" d="M357 101.14c-128.85 0-233.3 69.4-233.3 155s104.45 155 233.3 155a155 155 0 1 0 0-310z"/>
        <path class="cls-9" d="M402 107.79a155.08 155.08 0 0 1-1.15 297.09s42.33-44.4 42.33-148.71S402 107.79 402 107.79z"/>
        <path class="cls-10" d="M462.74 142.82s9.18 11.16 8.65 33.64-7.27 18.58-8.65 30c-2.4 19.88 13.12 38-16.31 55.13l-.26 23.48s11-15.58 20.07-28.9-4.2-30.94 5.43-48.8 10.2-22.25 11.49-41.29c.31-4.58-5-10.67-8.89-14.22a95.47 95.47 0 0 0-11.53-9.04zM442 124.67s10.81 5.69 10.44 21.44-5.07 16.09-6 24.09c-1.66 13.92 10 20.87-2.7 38.13l2.44 19.27s1.2-15.16 7.49-24.49-3.87-19.6 2.79-32.11-.67-19 .22-32.36c.21-3.21-3.56-4.9-6.22-7.38a67.36 67.36 0 0 0-8.46-6.59z"/>
        <path class="cls-2" d="M406.79 403c26.88-8.55 43.84-87.24 43.84-146.84s-16.1-138-43-146.54l-17.51-4.92c26.88 8.55 48.25 91.86 48.25 151.46S417 399.08 390.15 407.62z"/>
        <path class="cls-11" d="M406.79 403c26.88-8.55 43.84-87.24 43.84-146.84s-16.1-138-43-146.54l-17.51-4.92c26.88 8.55 48.25 91.86 48.25 151.46S417 399.08 390.15 407.62z"/>
        <path class="cls-5" d="M357 101.14c-128.85 0-233.3 69.4-233.3 155s104.45 155 233.3 155a155 155 0 1 0 0-310z"/>
        <g class="detail">
          <path class="cls-11" d="M243 121.07c-16 32.61-26.87 90.22-26.87 135.09 0 27.65 4.13 60.15 11 88.64"/>
          <rect class="cls-8" x="170.9" y="248.58" width="65.2" height="15.16" rx="7.21" ry="7.21"/>
          <path class="cls-11" d="M428 343.44H167"/>
          <circle class="cls-4" cx="192.34" cy="354.27" r="2.01" transform="rotate(-36 192.35 354.27)"/>
          <circle class="cls-4" cx="218.84" cy="354.27" r="2.01" transform="rotate(-36 218.84 354.27)"/>
          <circle class="cls-4" cx="245.33" cy="354.27" r="2.01" transform="rotate(-36 245.33 354.27)"/>
          <circle class="cls-4" cx="271.82" cy="354.27" r="2.01" transform="rotate(-36 271.82 354.27)"/>
          <circle class="cls-4" cx="298.32" cy="354.27" r="2.01" transform="rotate(-36 298.32 354.27)"/>
          <circle class="cls-4" cx="324.81" cy="354.27" r="2.01" transform="rotate(-36 324.81 354.27)"/>
          <circle class="cls-4" cx="351.31" cy="354.27" r="2.01" transform="rotate(-36 351.3 354.27)"/>
          <circle class="cls-4" cx="377.8" cy="354.27" r="2.01" transform="rotate(-36 377.79 354.27)"/>
          <circle class="cls-4" cx="404.29" cy="354.27" r="2.01" transform="rotate(-36 404.3 354.27)"/>
          <circle class="cls-4" cx="181.1" cy="335" r="2.01" transform="rotate(-36 181.1 335)"/>
          <circle class="cls-4" cx="234.09" cy="335" r="2.01" transform="rotate(-35.9 234.28 333.41)"/>
          <circle class="cls-4" cx="234.09" cy="178.45" r="2.01" transform="rotate(-36 234.1 178.45)"/>
          <circle class="cls-4" cx="211.61" cy="193.7" r="2.01" transform="rotate(-36 211.62 193.7)"/>
          <circle class="cls-4" cx="207.6" cy="233.84" r="2.01" transform="rotate(-36 207.59 233.84)"/>
          <circle class="cls-4" cx="242.92" cy="144.73" r="2.01" transform="rotate(-36 242.93 144.72)"/>
          <circle class="cls-4" cx="218.84" cy="157.57" r="2.01" transform="rotate(-36 218.84 157.56)"/>
          <circle class="cls-4" cx="206.8" cy="278.8" r="2.01" transform="rotate(-36 206.8 278.8)"/>
          <circle class="cls-4" cx="226.87" cy="214.57" r="2.01" transform="rotate(-36 226.87 214.58)"/>
          <circle class="cls-4" cx="226.87" cy="298.87" r="2.01" transform="rotate(-36 226.87 298.87)"/>
          <circle class="cls-4" cx="211.61" cy="319.74" r="2.01" transform="rotate(-36 211.61 319.75)"/>
          <circle class="cls-4" cx="287.08" cy="335" r="2.01" transform="rotate(-36 287.08 335)"/>
          <circle class="cls-4" cx="340.07" cy="335" r="2.01" transform="rotate(-36 340.06 335)"/>
          <circle class="cls-4" cx="393.05" cy="335" r="2.01" transform="rotate(-36 393.05 335)"/>
        </g>
        <g class="window">
          <circle class="cls-12" cx="318.45" cy="256.16" r="64.41"/>
          <circle class="cls-9" cx="318.45" cy="256.16" r="47.55"/>
          <path class="cls-10" d="M288.73 272.23c-2.87 12.83-8 12.83-8 12.83l9 9s-.1-17.9 20.59-29.41c5.66-3.15 13.9-2.5 16.92-8.23a15.52 15.52 0 0 0 1.35-7c.09-6.16-.71-12.33-.22-18.48s9.48-18.14 9.48-18.14l-9-3s-6.49 9.12-7.63 11.68c-3.1 7 .72 18.77-2.87 25.5-6.23 11.58-26.74 12.4-29.62 25.25z"/>
          <path class="cls-10" d="M314.36 209.12c-6.32 1.69-7.83 5.13-7.52 11 .22 4.2.81 7.87-1.56 11.64-2 3.26-5.16 5.68-8.32 7.8-5.88 3.94-12 1.89-16.27 7.66s-8.59 19.55-8.59 19.55l4.94 12s2.13-17.05 6-22.23c4.22-5.63 18.94-6.87 24.49-10.91 4.73-3.45 5.9-7.09 7.63-12.85.68-7.14-3.28-8.95-3.21-12 .18-7.66 10.84-10.44 12-12.15a19.77 19.77 0 0 0-9.59.49z"/>
          <circle class="cls-11" cx="318.45" cy="256.16" r="47.55"/>
          <circle class="cls-4" cx="373.78" cy="256.32" r="2.01" transform="rotate(-35.9 373.36 254.61)"/>
          <circle class="cls-4" cx="366.45" cy="228.63" r="2.01" transform="rotate(-66 366.45 228.63)"/>
          <circle class="cls-4" cx="346.25" cy="208.32" r="2.01" transform="rotate(-6 346.21 208.33)"/>
          <circle class="cls-4" cx="318.6" cy="200.82" r="2.01" transform="rotate(-36 318.6 200.82)"/>
          <circle class="cls-4" cx="290.91" cy="208.16" r="2.01" transform="rotate(-66 290.91 208.15)"/>
          <circle class="cls-4" cx="270.6" cy="228.35" r="2.01" transform="rotate(-6 270.63 228.38)"/>
          <circle class="cls-4" cx="263.11" cy="256" r="2.01" transform="rotate(-35.9 263 254.58)"/>
          <circle class="cls-4" cx="270.44" cy="283.69" r="2.01" transform="rotate(-66 270.43 283.69)"/>
          <circle class="cls-4" cx="290.64" cy="304.01" r="2.01" transform="rotate(-6 290.68 304.06)"/>
          <circle class="cls-4" cx="318.29" cy="311.5" r="2.01" transform="rotate(-36 318.29 311.51)"/>
          <circle class="cls-4" cx="345.98" cy="304.17" r="2.01" transform="rotate(-66 345.98 304.17)"/>
          <circle class="cls-4" cx="366.29" cy="283.97" r="2.01" transform="rotate(-6 366.26 284)"/>
        </g>
      </g>
      <g class="propeller">
        <g class="scoop_copy_3" data-name="scoop copy 3">
          <path class="cls-13" d="M81.77 273.63s12.27 4.86 11.94 14.2c-.53 14.75-26.11 20.23-24 34.19 1.68 11.14 25.62 15.2 39.88 2.24 14.55-13.21 15.12-27.17 5.59-40.43s-21-15.39-21-15.39z"/>
          <path class="cls-14" d="M81.77 273.63s12.27 4.86 11.94 14.2c-.53 14.75-26.11 20.23-24 34.19 1.68 11.14 25.62 15.2 39.88 2.24 14.55-13.21 15.12-27.17 5.59-40.43s-21-15.39-21-15.39z"/>
          <path class="cls-7" d="M101.14 271.17l-10.37 8.85M94.68 331.85l-18.45-24.31"/>
          <circle class="cls-4" cx="84.67" cy="311" r="2.01" transform="rotate(-36 84.68 311)"/>
          <circle class="cls-4" cx="101.57" cy="278.8" r="2.01" transform="rotate(-36 101.57 278.81)"/>
          <circle class="cls-4" cx="83.49" cy="325.76" r="2.01" transform="rotate(-36 83.49 325.76)"/>
          <circle class="cls-4" cx="95.88" cy="323.7" r="2.01" transform="rotate(-36 95.89 323.69)"/>
        </g>
        <g class="scoop_copy_4" data-name="scoop copy 4">
          <path class="cls-13" d="M96.24 258.62s8.42-10.17 17.2-7c13.86 5.06 11.17 31.08 25.1 33.39 11.11 1.84 22.37-19.67 14.46-37.23-8.08-17.89-21.17-22.78-36.74-17.78s-21.12 15.19-21.12 15.19z"/>
          <path class="cls-14" d="M96.24 258.62s8.42-10.17 17.2-7c13.86 5.06 11.17 31.08 25.1 33.39 11.11 1.84 22.37-19.67 14.46-37.23-8.08-17.89-21.17-22.78-36.74-17.78s-21.12 15.19-21.12 15.19z"/>
          <path class="cls-7" d="M99.89 239.44l5.21 12.59M155.6 264.33l-28.83 10.03"/>
          <circle class="cls-4" cx="132.68" cy="267.4" r="2.01" transform="rotate(-18 132.69 267.41)"/>
          <circle class="cls-4" cx="107.28" cy="241.38" r="2.01" transform="rotate(-18 107.26 241.38)"/>
          <circle class="cls-4" cx="146.35" cy="273.09" r="2.01" transform="rotate(-18 146.35 273.1)"/>
          <circle class="cls-4" cx="148.22" cy="260.66" r="2.01" transform="rotate(-18 148.22 260.65)"/>
        </g>
        <g class="Layer_16" data-name="Layer 16">
          <path class="cls-13" d="M86.43 240.21s-7.07-11.15-1.31-18.51c9.1-11.62 33-1 39.51-13.55 5.18-10-11.79-27.35-30.94-25.25C74.15 185 65.48 196 65.4 212.32s7.92 24.78 7.92 24.78z"/>
          <path class="cls-14" d="M86.43 240.21s-7.07-11.15-1.31-18.51c9.1-11.62 33-1 39.51-13.55 5.18-10-11.79-27.35-30.94-25.25C74.15 185 65.48 196 65.4 212.32s7.92 24.78 7.92 24.78z"/>
          <path class="cls-7" d="M69.32 230.81l13.59-1.06M110.21 185.52l.64 30.52"/>
          <circle class="cls-4" cx="106.05" cy="208.27" r="2.01"/>
          <circle class="cls-4" cx="73.45" cy="224.39" r="2.01"/>
          <circle class="cls-4" cx="115.68" cy="197.03" r="2.01"/>
          <circle class="cls-4" cx="104.44" cy="191.41" r="2.01"/>
        </g>
        <g class="Layer_17" data-name="Layer 17">
          <path class="cls-13" d="M65.9 243.85s-12.79 3.28-18-4.47c-8.24-12.24 9.23-31.71-.68-41.76-7.91-8-29.66 2.76-33.58 21.63-4 19.24 3.73 30.87 19.25 36s26 .12 26 .12z"/>
          <path class="cls-14" d="M65.9 243.85s-12.79 3.28-18-4.47c-8.24-12.24 9.23-31.71-.68-41.76-7.91-8-29.66 2.76-33.58 21.63-4 19.24 3.73 30.87 19.25 36s26 .12 26 .12z"/>
          <path class="cls-7" d="M51.67 257.22l3.19-13.25M21.23 204.34l29.22 8.82"/>
          <circle class="cls-4" cx="41.58" cy="215.32" r="2.01" transform="rotate(-72 41.58 215.32)"/>
          <circle class="cls-4" cx="46.84" cy="251.31" r="2.01" transform="rotate(-72 46.84 251.31)"/>
          <circle class="cls-4" cx="33.87" cy="202.69" r="2.01" transform="rotate(-72 33.86 202.69)"/>
          <circle class="cls-4" cx="25.05" cy="211.64" r="2.01" transform="rotate(-72 25.05 211.64)"/>
        </g>
        <g class="Layer_18" data-name="Layer 18">
          <path class="cls-13" d="M63 264.5s-.83 13.18-9.82 15.74C39 284.3 25.89 261.67 13.27 268c-10.07 5-6.54 29 10.19 38.61 17.06 9.75 30.51 6 40.18-7.18s8.16-24.71 8.16-24.71z"/>
          <path class="cls-14" d="M63 264.5s-.83 13.18-9.82 15.74C39 284.3 25.89 261.67 13.27 268c-10.07 5-6.54 29 10.19 38.61 17.06 9.75 30.51 6 40.18-7.18s8.16-24.71 8.16-24.71z"/>
          <path class="cls-7" d="M71.34 282.17l-11.62-7.13M11.63 294.78l17.43-25.07"/>
          <circle class="cls-4" cx="28.37" cy="278.82" r="2.01" transform="rotate(-54 28.36 278.82)"/>
          <circle class="cls-4" cx="64.22" cy="284.93" r="2.01" transform="rotate(-53.84 64.99 284.81)"/>
          <circle class="cls-4" cx="13.97" cy="282.25" r="2.01" transform="rotate(-54 13.97 282.25)"/>
          <circle class="cls-4" cx="19.76" cy="293.4" r="2.01" transform="rotate(-54 19.76 293.4)"/>
        </g>
        <g class="center">
          <circle class="cls-15" cx="78.76" cy="256.16" r="19.98"/>
          <circle class="cls-16" cx="78.76" cy="256.16" r="12.31"/>
        </g>
        <circle class="cls-17" cx="78.76" cy="256.16" r="78.76"/>
      </g>


</svg>
