<svg class="waves" xmlns="http://www.w3.org/2000/svg" viewBox="0 0 1024 595.3" xml:space="preserve" preserveAspectRatio="xMinYMin meet" width="100%" height="100%">
  <path class="cls-1" d="M1024 68.49c-105 0-192.36-103.39-390.76-46.13C611 28.79 590.77 41.3 568.57 48c-43.6 13.2-91.84 9.23-133.5-9.18-28.76-12.68-55.19-32.16-86.2-37.35-23.62-4-47.73.81-71.2 5.55-54.76 11.07-65.46 18.77-118.07 37.58C134.87 53.44 93.65 68.48 0 68.49v71c71.21-.05 157-38.78 231.6-39.4 84.28-.7 170.79 37.24 252.93 56.11 31.85 7.32 64.11 14.36 96.79 14.08 61.66-.53 130.2-59 191.83-61.19 104-3.66 171.85 30.4 250.85 30.4zM0 537.49c105 0 192.36 87.49 390.76 39 22.28-5.45 42.47-16.11 64.67-21.8 43.6-11.19 91.84-7.85 133.5 7.74 28.76 10.77 55.19 27.26 86.19 31.66 23.62 3.35 47.73-.69 71.2-4.71 54.76-9.38 65.46-15.91 118.07-31.84 24.74-7.49 65.61-20 159.61-20v-61c-111.43 0-214.92 59.41-392 45-88.07-7.16-112.28-32.92-199.41-41.92-61.34-6.34-97.66 23-181.74 23C146.85 502.55 79 476.49 0 476.49zM1023.88 251.49c-58.33 19.36-124.88 42.45-168.43 19.68-16.35-8.54-29.6-22.16-45.88-30.84-18.21-9.71-39.31-12.72-60-12.72-62.88 0-122.35 26-182.53 44.18-72.5 21.95-154.69 31.57-223 2.72l-2.59-1.11-1.53-.68-2.35-1.07-1.6-.76-2.26-1.09-1.62-.81-2.22-1.13-1.6-.84-2.22-1.2-1.56-.86-2.28-1.3-1.46-.84c-.83-.49-1.66-1-2.48-1.5l-1.21-.74q-1.84-1.14-3.66-2.32T310 256q-3.42-2.33-6.78-4.78t-6.69-4.93c-3.33-2.48-6.65-5-10-7.43l-3.36-2.43a159.61 159.61 0 0 0-24.67-15c-28.09-13.25-60.44-13.47-91.42-11.33C114 213.73 58.22 232.08 0 251.4v83c40.19-11.34 164.09-38.72 236.71-1.77 20.11 10.23 38.47 23.62 58 35 4.5 2.62 9.06 5.12 13.71 7.46q2.12 1.06 4.25 2.07l1.35.63 3 1.36 1.52.67 3 1.28 1.4.59q2 .81 3.93 1.58l.43.17q2.19.85 4.39 1.65l1.33.48 3.13 1.1 1.59.53c.43.14 1.31.3 1.31.44 41 13.71 86.4 16.78 130.32 19.56 21.77 1.38 44 2.71 65-3.29 18.35-5.24 34.66-15.81 50.38-26.64A1078.63 1078.63 0 0 0 697.27 288c16.14-14.64 33-30.39 54.26-35 35.07-7.6 65.13 21 92.76 43.91 70.71 58.59 139.52 48.85 179.57 37.54.05-.02.14-82.99.02-82.96z"/>
</svg>
